<?xml version="1.0" encoding="UTF-8" standalone="no"?>
<score-partwise>
<work>
<work-title>Bike Chase</work-title>
</work>
<identification>
<encoding>
<software>TuxGuitar</software>
</encoding>
<creator type="composer"/>
</identification>
<part-list>
<score-part id="P1">
<part-name>Bass</part-name>
<score-instrument id="P1-I1">
<instrument-name>Fingered Bass</instrument-name>
</score-instrument>
<midi-instrument id="P1-I1">
<midi-channel>5</midi-channel>
<midi-program>34</midi-program>
</midi-instrument>
</score-part>
</part-list>
<part id="P1">
<measure number="1">
<attributes>
<divisions>960</divisions>
<key>
<fifths>0</fifths>
<mode>major</mode>
</key>
<clef>
<sign>F</sign>
<line>4</line>
</clef>
<time>
<beats>1</beats>
<beat-type>4</beat-type>
</time>
<staff-details>
<staff-lines>5</staff-lines>
<staff-tuning line="1">
<tuning-step>B</tuning-step>
<tuning-octave>1</tuning-octave>
</staff-tuning>
<staff-tuning line="2">
<tuning-step>E</tuning-step>
<tuning-octave>2</tuning-octave>
</staff-tuning>
<staff-tuning line="3">
<tuning-step>A</tuning-step>
<tuning-octave>2</tuning-octave>
</staff-tuning>
<staff-tuning line="4">
<tuning-step>D</tuning-step>
<tuning-octave>3</tuning-octave>
</staff-tuning>
<staff-tuning line="5">
<tuning-step>G</tuning-step>
<tuning-octave>3</tuning-octave>
</staff-tuning>
</staff-details>
</attributes>
<direction placement="above">
<sound tempo="111"/>
</direction>
<note>
<rest/>
<voice>1</voice>
<duration>960</duration>
<type>quarter</type>
</note>
</measure>
<measure number="2">
<attributes>
<time>
<beats>4</beats>
<beat-type>4</beat-type>
</time>
</attributes>
<note>
<pitch>
<step>G</step>
<octave>2</octave>
<alter>1</alter>
</pitch>
<notations>
<technical>
<fret>4</fret>
<string>4</string>
</technical>
</notations>
<voice>1</voice>
<duration>240</duration>
<type>16th</type>
</note>
<note>
<pitch>
<step>G</step>
<octave>2</octave>
<alter>1</alter>
</pitch>
<notations>
<technical>
<fret>4</fret>
<string>4</string>
</technical>
</notations>
<voice>1</voice>
<duration>240</duration>
<type>16th</type>
</note>
<note>
<pitch>
<step>G</step>
<octave>2</octave>
<alter>1</alter>
</pitch>
<notations>
<technical>
<fret>4</fret>
<string>4</string>
</technical>
</notations>
<voice>1</voice>
<duration>240</duration>
<type>16th</type>
</note>
<note>
<pitch>
<step>G</step>
<octave>2</octave>
<alter>1</alter>
</pitch>
<notations>
<technical>
<fret>4</fret>
<string>4</string>
</technical>
</notations>
<voice>1</voice>
<duration>240</duration>
<type>16th</type>
</note>
<note>
<pitch>
<step>G</step>
<octave>2</octave>
<alter>1</alter>
</pitch>
<notations>
<technical>
<fret>4</fret>
<string>4</string>
</technical>
</notations>
<voice>1</voice>
<duration>240</duration>
<type>16th</type>
</note>
<note>
<pitch>
<step>G</step>
<octave>2</octave>
<alter>1</alter>
</pitch>
<notations>
<technical>
<fret>4</fret>
<string>4</string>
</technical>
</notations>
<voice>1</voice>
<duration>240</duration>
<type>16th</type>
</note>
<note>
<pitch>
<step>G</step>
<octave>2</octave>
<alter>1</alter>
</pitch>
<notations>
<technical>
<fret>4</fret>
<string>4</string>
</technical>
</notations>
<voice>1</voice>
<duration>240</duration>
<type>16th</type>
</note>
<note>
<pitch>
<step>G</step>
<octave>2</octave>
<alter>1</alter>
</pitch>
<notations>
<technical>
<fret>4</fret>
<string>4</string>
</technical>
</notations>
<voice>1</voice>
<duration>240</duration>
<type>16th</type>
</note>
<note>
<pitch>
<step>G</step>
<octave>2</octave>
<alter>1</alter>
</pitch>
<notations>
<technical>
<fret>4</fret>
<string>4</string>
</technical>
</notations>
<voice>1</voice>
<duration>240</duration>
<type>16th</type>
</note>
<note>
<pitch>
<step>G</step>
<octave>2</octave>
<alter>1</alter>
</pitch>
<notations>
<technical>
<fret>4</fret>
<string>4</string>
</technical>
</notations>
<voice>1</voice>
<duration>240</duration>
<type>16th</type>
</note>
<note>
<pitch>
<step>G</step>
<octave>2</octave>
<alter>1</alter>
</pitch>
<notations>
<technical>
<fret>4</fret>
<string>4</string>
</technical>
</notations>
<voice>1</voice>
<duration>240</duration>
<type>16th</type>
</note>
<note>
<pitch>
<step>D</step>
<octave>2</octave>
<alter>1</alter>
</pitch>
<notations>
<technical>
<fret>4</fret>
<string>5</string>
</technical>
</notations>
<voice>1</voice>
<duration>480</duration>
<type>eighth</type>
</note>
<note>
<pitch>
<step>D</step>
<octave>2</octave>
<alter>1</alter>
</pitch>
<notations>
<technical>
<fret>4</fret>
<string>5</string>
</technical>
</notations>
<voice>1</voice>
<duration>240</duration>
<type>16th</type>
</note>
<note>
<pitch>
<step>F</step>
<octave>2</octave>
<alter>1</alter>
</pitch>
<notations>
<technical>
<fret>2</fret>
<string>4</string>
</technical>
</notations>
<voice>1</voice>
<duration>240</duration>
<type>16th</type>
</note>
<note>
<pitch>
<step>G</step>
<octave>2</octave>
</pitch>
<notations>
<technical>
<fret>3</fret>
<string>4</string>
</technical>
</notations>
<voice>1</voice>
<duration>240</duration>
<type>16th</type>
</note>
</measure>
<measure number="3">
<note>
<pitch>
<step>G</step>
<octave>2</octave>
<alter>1</alter>
</pitch>
<notations>
<technical>
<fret>4</fret>
<string>4</string>
</technical>
</notations>
<voice>1</voice>
<duration>240</duration>
<type>16th</type>
</note>
<note>
<pitch>
<step>G</step>
<octave>2</octave>
<alter>1</alter>
</pitch>
<notations>
<technical>
<fret>4</fret>
<string>4</string>
</technical>
</notations>
<voice>1</voice>
<duration>240</duration>
<type>16th</type>
</note>
<note>
<pitch>
<step>G</step>
<octave>2</octave>
<alter>1</alter>
</pitch>
<notations>
<technical>
<fret>4</fret>
<string>4</string>
</technical>
</notations>
<voice>1</voice>
<duration>240</duration>
<type>16th</type>
</note>
<note>
<pitch>
<step>G</step>
<octave>2</octave>
<alter>1</alter>
</pitch>
<notations>
<technical>
<fret>4</fret>
<string>4</string>
</technical>
</notations>
<voice>1</voice>
<duration>240</duration>
<type>16th</type>
</note>
<note>
<pitch>
<step>G</step>
<octave>2</octave>
<alter>1</alter>
</pitch>
<notations>
<technical>
<fret>4</fret>
<string>4</string>
</technical>
</notations>
<voice>1</voice>
<duration>240</duration>
<type>16th</type>
</note>
<note>
<pitch>
<step>G</step>
<octave>2</octave>
<alter>1</alter>
</pitch>
<notations>
<technical>
<fret>4</fret>
<string>4</string>
</technical>
</notations>
<voice>1</voice>
<duration>240</duration>
<type>16th</type>
</note>
<note>
<pitch>
<step>G</step>
<octave>2</octave>
<alter>1</alter>
</pitch>
<notations>
<technical>
<fret>4</fret>
<string>4</string>
</technical>
</notations>
<voice>1</voice>
<duration>240</duration>
<type>16th</type>
</note>
<note>
<pitch>
<step>G</step>
<octave>2</octave>
<alter>1</alter>
</pitch>
<notations>
<technical>
<fret>4</fret>
<string>4</string>
</technical>
</notations>
<voice>1</voice>
<duration>240</duration>
<type>16th</type>
</note>
<note>
<pitch>
<step>G</step>
<octave>2</octave>
<alter>1</alter>
</pitch>
<notations>
<technical>
<fret>4</fret>
<string>4</string>
</technical>
</notations>
<voice>1</voice>
<duration>240</duration>
<type>16th</type>
</note>
<note>
<pitch>
<step>G</step>
<octave>2</octave>
<alter>1</alter>
</pitch>
<notations>
<technical>
<fret>4</fret>
<string>4</string>
</technical>
</notations>
<voice>1</voice>
<duration>240</duration>
<type>16th</type>
</note>
<note>
<pitch>
<step>G</step>
<octave>2</octave>
<alter>1</alter>
</pitch>
<notations>
<technical>
<fret>4</fret>
<string>4</string>
</technical>
</notations>
<voice>1</voice>
<duration>240</duration>
<type>16th</type>
</note>
<note>
<pitch>
<step>D</step>
<octave>2</octave>
<alter>1</alter>
</pitch>
<notations>
<technical>
<fret>4</fret>
<string>5</string>
</technical>
</notations>
<voice>1</voice>
<duration>480</duration>
<type>eighth</type>
</note>
<note>
<pitch>
<step>D</step>
<octave>2</octave>
<alter>1</alter>
</pitch>
<notations>
<technical>
<fret>4</fret>
<string>5</string>
</technical>
</notations>
<voice>1</voice>
<duration>240</duration>
<type>16th</type>
</note>
<note>
<pitch>
<step>F</step>
<octave>2</octave>
<alter>1</alter>
</pitch>
<notations>
<technical>
<fret>2</fret>
<string>4</string>
</technical>
</notations>
<voice>1</voice>
<duration>240</duration>
<type>16th</type>
</note>
<note>
<pitch>
<step>G</step>
<octave>2</octave>
</pitch>
<notations>
<technical>
<fret>3</fret>
<string>4</string>
</technical>
</notations>
<voice>1</voice>
<duration>240</duration>
<type>16th</type>
</note>
</measure>
<measure number="4">
<note>
<pitch>
<step>G</step>
<octave>2</octave>
<alter>1</alter>
</pitch>
<notations>
<technical>
<fret>4</fret>
<string>4</string>
</technical>
</notations>
<voice>1</voice>
<duration>240</duration>
<type>16th</type>
</note>
<note>
<pitch>
<step>G</step>
<octave>2</octave>
<alter>1</alter>
</pitch>
<notations>
<technical>
<fret>4</fret>
<string>4</string>
</technical>
</notations>
<voice>1</voice>
<duration>240</duration>
<type>16th</type>
</note>
<note>
<pitch>
<step>G</step>
<octave>2</octave>
<alter>1</alter>
</pitch>
<notations>
<technical>
<fret>4</fret>
<string>4</string>
</technical>
</notations>
<voice>1</voice>
<duration>240</duration>
<type>16th</type>
</note>
<note>
<pitch>
<step>G</step>
<octave>2</octave>
<alter>1</alter>
</pitch>
<notations>
<technical>
<fret>4</fret>
<string>4</string>
</technical>
</notations>
<voice>1</voice>
<duration>240</duration>
<type>16th</type>
</note>
<note>
<pitch>
<step>G</step>
<octave>2</octave>
<alter>1</alter>
</pitch>
<notations>
<technical>
<fret>4</fret>
<string>4</string>
</technical>
</notations>
<voice>1</voice>
<duration>240</duration>
<type>16th</type>
</note>
<note>
<pitch>
<step>G</step>
<octave>2</octave>
<alter>1</alter>
</pitch>
<notations>
<technical>
<fret>4</fret>
<string>4</string>
</technical>
</notations>
<voice>1</voice>
<duration>240</duration>
<type>16th</type>
</note>
<note>
<pitch>
<step>G</step>
<octave>2</octave>
<alter>1</alter>
</pitch>
<notations>
<technical>
<fret>4</fret>
<string>4</string>
</technical>
</notations>
<voice>1</voice>
<duration>240</duration>
<type>16th</type>
</note>
<note>
<pitch>
<step>G</step>
<octave>2</octave>
<alter>1</alter>
</pitch>
<notations>
<technical>
<fret>4</fret>
<string>4</string>
</technical>
</notations>
<voice>1</voice>
<duration>240</duration>
<type>16th</type>
</note>
<note>
<pitch>
<step>G</step>
<octave>2</octave>
<alter>1</alter>
</pitch>
<notations>
<technical>
<fret>4</fret>
<string>4</string>
</technical>
</notations>
<voice>1</voice>
<duration>240</duration>
<type>16th</type>
</note>
<note>
<pitch>
<step>G</step>
<octave>2</octave>
<alter>1</alter>
</pitch>
<notations>
<technical>
<fret>4</fret>
<string>4</string>
</technical>
</notations>
<voice>1</voice>
<duration>240</duration>
<type>16th</type>
</note>
<note>
<pitch>
<step>G</step>
<octave>2</octave>
<alter>1</alter>
</pitch>
<notations>
<technical>
<fret>4</fret>
<string>4</string>
</technical>
</notations>
<voice>1</voice>
<duration>240</duration>
<type>16th</type>
</note>
<note>
<pitch>
<step>D</step>
<octave>2</octave>
<alter>1</alter>
</pitch>
<notations>
<technical>
<fret>4</fret>
<string>5</string>
</technical>
</notations>
<voice>1</voice>
<duration>480</duration>
<type>eighth</type>
</note>
<note>
<pitch>
<step>D</step>
<octave>2</octave>
<alter>1</alter>
</pitch>
<notations>
<technical>
<fret>4</fret>
<string>5</string>
</technical>
</notations>
<voice>1</voice>
<duration>240</duration>
<type>16th</type>
</note>
<note>
<pitch>
<step>F</step>
<octave>2</octave>
<alter>1</alter>
</pitch>
<notations>
<technical>
<fret>2</fret>
<string>4</string>
</technical>
</notations>
<voice>1</voice>
<duration>240</duration>
<type>16th</type>
</note>
<note>
<pitch>
<step>G</step>
<octave>2</octave>
</pitch>
<notations>
<technical>
<fret>3</fret>
<string>4</string>
</technical>
</notations>
<voice>1</voice>
<duration>240</duration>
<type>16th</type>
</note>
</measure>
<measure number="5">
<note>
<pitch>
<step>G</step>
<octave>2</octave>
<alter>1</alter>
</pitch>
<notations>
<technical>
<fret>4</fret>
<string>4</string>
</technical>
</notations>
<voice>1</voice>
<duration>240</duration>
<type>16th</type>
</note>
<note>
<pitch>
<step>G</step>
<octave>2</octave>
<alter>1</alter>
</pitch>
<notations>
<technical>
<fret>4</fret>
<string>4</string>
</technical>
</notations>
<voice>1</voice>
<duration>240</duration>
<type>16th</type>
</note>
<note>
<pitch>
<step>G</step>
<octave>2</octave>
<alter>1</alter>
</pitch>
<notations>
<technical>
<fret>4</fret>
<string>4</string>
</technical>
</notations>
<voice>1</voice>
<duration>240</duration>
<type>16th</type>
</note>
<note>
<pitch>
<step>G</step>
<octave>2</octave>
<alter>1</alter>
</pitch>
<notations>
<technical>
<fret>4</fret>
<string>4</string>
</technical>
</notations>
<voice>1</voice>
<duration>240</duration>
<type>16th</type>
</note>
<note>
<pitch>
<step>G</step>
<octave>2</octave>
<alter>1</alter>
</pitch>
<notations>
<technical>
<fret>4</fret>
<string>4</string>
</technical>
</notations>
<voice>1</voice>
<duration>240</duration>
<type>16th</type>
</note>
<note>
<pitch>
<step>G</step>
<octave>2</octave>
<alter>1</alter>
</pitch>
<notations>
<technical>
<fret>4</fret>
<string>4</string>
</technical>
</notations>
<voice>1</voice>
<duration>240</duration>
<type>16th</type>
</note>
<note>
<pitch>
<step>G</step>
<octave>2</octave>
<alter>1</alter>
</pitch>
<notations>
<technical>
<fret>4</fret>
<string>4</string>
</technical>
</notations>
<voice>1</voice>
<duration>240</duration>
<type>16th</type>
</note>
<note>
<pitch>
<step>G</step>
<octave>2</octave>
<alter>1</alter>
</pitch>
<notations>
<technical>
<fret>4</fret>
<string>4</string>
</technical>
</notations>
<voice>1</voice>
<duration>240</duration>
<type>16th</type>
</note>
<note>
<pitch>
<step>G</step>
<octave>2</octave>
<alter>1</alter>
</pitch>
<notations>
<technical>
<fret>4</fret>
<string>4</string>
</technical>
</notations>
<voice>1</voice>
<duration>240</duration>
<type>16th</type>
</note>
<note>
<pitch>
<step>G</step>
<octave>2</octave>
<alter>1</alter>
</pitch>
<notations>
<technical>
<fret>4</fret>
<string>4</string>
</technical>
</notations>
<voice>1</voice>
<duration>240</duration>
<type>16th</type>
</note>
<note>
<pitch>
<step>G</step>
<octave>2</octave>
<alter>1</alter>
</pitch>
<notations>
<technical>
<fret>4</fret>
<string>4</string>
</technical>
</notations>
<voice>1</voice>
<duration>240</duration>
<type>16th</type>
</note>
<note>
<pitch>
<step>D</step>
<octave>2</octave>
<alter>1</alter>
</pitch>
<notations>
<technical>
<fret>4</fret>
<string>5</string>
</technical>
</notations>
<voice>1</voice>
<duration>480</duration>
<type>eighth</type>
</note>
<note>
<pitch>
<step>D</step>
<octave>2</octave>
<alter>1</alter>
</pitch>
<notations>
<technical>
<fret>4</fret>
<string>5</string>
</technical>
</notations>
<voice>1</voice>
<duration>240</duration>
<type>16th</type>
</note>
<note>
<pitch>
<step>F</step>
<octave>2</octave>
<alter>1</alter>
</pitch>
<notations>
<technical>
<fret>2</fret>
<string>4</string>
</technical>
</notations>
<voice>1</voice>
<duration>240</duration>
<type>16th</type>
</note>
<note>
<pitch>
<step>G</step>
<octave>2</octave>
</pitch>
<notations>
<technical>
<fret>3</fret>
<string>4</string>
</technical>
</notations>
<voice>1</voice>
<duration>240</duration>
<type>16th</type>
</note>
</measure>
<measure number="6">
<note>
<pitch>
<step>D</step>
<octave>2</octave>
<alter>1</alter>
</pitch>
<notations>
<technical>
<fret>4</fret>
<string>5</string>
</technical>
</notations>
<voice>1</voice>
<duration>1440</duration>
<type>quarter</type>
<dot/>
</note>
<note>
<pitch>
<step>A</step>
<octave>2</octave>
<alter>1</alter>
</pitch>
<notations>
<technical>
<fret>6</fret>
<string>4</string>
</technical>
</notations>
<voice>1</voice>
<duration>480</duration>
<type>eighth</type>
</note>
<note>
<pitch>
<step>F</step>
<octave>3</octave>
<alter>1</alter>
</pitch>
<notations>
<technical>
<fret>4</fret>
<string>2</string>
</technical>
</notations>
<voice>1</voice>
<duration>480</duration>
<type>eighth</type>
</note>
<note>
<pitch>
<step>F</step>
<octave>3</octave>
<alter>1</alter>
</pitch>
<notations>
<technical>
<fret>4</fret>
<string>2</string>
</technical>
</notations>
<voice>1</voice>
<duration>240</duration>
<type>16th</type>
</note>
<note>
<pitch>
<step>F</step>
<octave>3</octave>
</pitch>
<notations>
<technical>
<fret>3</fret>
<string>2</string>
</technical>
</notations>
<voice>1</voice>
<duration>240</duration>
<type>16th</type>
</note>
<note>
<pitch>
<step>F</step>
<octave>3</octave>
<alter>1</alter>
</pitch>
<notations>
<technical>
<fret>4</fret>
<string>2</string>
</technical>
</notations>
<voice>1</voice>
<duration>240</duration>
<type>16th</type>
</note>
<note>
<pitch>
<step>D</step>
<octave>3</octave>
<alter>1</alter>
</pitch>
<notations>
<technical>
<fret>6</fret>
<string>3</string>
</technical>
</notations>
<voice>1</voice>
<duration>480</duration>
<type>eighth</type>
</note>
<note>
<pitch>
<step>A</step>
<octave>2</octave>
<alter>1</alter>
</pitch>
<notations>
<technical>
<fret>6</fret>
<string>4</string>
</technical>
</notations>
<voice>1</voice>
<duration>240</duration>
<type>16th</type>
</note>
</measure>
<measure number="7">
<note>
<pitch>
<step>C</step>
<octave>2</octave>
<alter>1</alter>
</pitch>
<notations>
<technical>
<fret>2</fret>
<string>5</string>
</technical>
</notations>
<voice>1</voice>
<duration>720</duration>
<type>eighth</type>
<dot/>
</note>
<note>
<pitch>
<step>G</step>
<octave>2</octave>
<alter>1</alter>
</pitch>
<notations>
<technical>
<fret>4</fret>
<string>4</string>
</technical>
</notations>
<voice>1</voice>
<duration>720</duration>
<type>eighth</type>
<dot/>
</note>
<note>
<pitch>
<step>C</step>
<octave>3</octave>
<alter>1</alter>
</pitch>
<notations>
<technical>
<fret>4</fret>
<string>3</string>
</technical>
</notations>
<voice>1</voice>
<duration>480</duration>
<type>eighth</type>
</note>
<note>
<pitch>
<step>E</step>
<octave>3</octave>
</pitch>
<notations>
<technical>
<fret>7</fret>
<string>3</string>
</technical>
</notations>
<voice>1</voice>
<duration>240</duration>
<type>16th</type>
</note>
<note>
<pitch>
<step>D</step>
<octave>3</octave>
<alter>1</alter>
</pitch>
<notations>
<technical>
<fret>6</fret>
<string>3</string>
</technical>
</notations>
<voice>1</voice>
<duration>240</duration>
<type>16th</type>
</note>
<note>
<pitch>
<step>E</step>
<octave>3</octave>
</pitch>
<notations>
<technical>
<fret>7</fret>
<string>3</string>
</technical>
</notations>
<voice>1</voice>
<duration>240</duration>
<type>16th</type>
</note>
<note>
<pitch>
<step>C</step>
<octave>3</octave>
<alter>1</alter>
</pitch>
<notations>
<technical>
<fret>4</fret>
<string>3</string>
</technical>
</notations>
<voice>1</voice>
<duration>480</duration>
<type>eighth</type>
</note>
<note>
<pitch>
<step>E</step>
<octave>2</octave>
</pitch>
<notations>
<technical>
<fret>0</fret>
<string>4</string>
</technical>
</notations>
<voice>1</voice>
<duration>240</duration>
<type>16th</type>
</note>
<note>
<pitch>
<step>G</step>
<octave>2</octave>
<alter>1</alter>
</pitch>
<notations>
<technical>
<fret>4</fret>
<string>4</string>
</technical>
</notations>
<voice>1</voice>
<duration>240</duration>
<type>16th</type>
</note>
<note>
<pitch>
<step>B</step>
<octave>2</octave>
</pitch>
<notations>
<technical>
<fret>7</fret>
<string>4</string>
</technical>
</notations>
<voice>1</voice>
<duration>240</duration>
<type>16th</type>
</note>
</measure>
<measure number="8">
<note>
<pitch>
<step>D</step>
<octave>2</octave>
<alter>1</alter>
</pitch>
<notations>
<technical>
<fret>4</fret>
<string>5</string>
</technical>
</notations>
<voice>1</voice>
<duration>1440</duration>
<type>quarter</type>
<dot/>
</note>
<note>
<pitch>
<step>A</step>
<octave>2</octave>
<alter>1</alter>
</pitch>
<notations>
<technical>
<fret>6</fret>
<string>4</string>
</technical>
</notations>
<voice>1</voice>
<duration>480</duration>
<type>eighth</type>
</note>
<note>
<pitch>
<step>F</step>
<octave>3</octave>
<alter>1</alter>
</pitch>
<notations>
<technical>
<fret>4</fret>
<string>2</string>
</technical>
</notations>
<voice>1</voice>
<duration>480</duration>
<type>eighth</type>
</note>
<note>
<pitch>
<step>F</step>
<octave>3</octave>
<alter>1</alter>
</pitch>
<notations>
<technical>
<fret>4</fret>
<string>2</string>
</technical>
</notations>
<voice>1</voice>
<duration>240</duration>
<type>16th</type>
</note>
<note>
<pitch>
<step>F</step>
<octave>3</octave>
</pitch>
<notations>
<technical>
<fret>3</fret>
<string>2</string>
</technical>
</notations>
<voice>1</voice>
<duration>240</duration>
<type>16th</type>
</note>
<note>
<pitch>
<step>F</step>
<octave>3</octave>
<alter>1</alter>
</pitch>
<notations>
<technical>
<fret>4</fret>
<string>2</string>
</technical>
</notations>
<voice>1</voice>
<duration>240</duration>
<type>16th</type>
</note>
<note>
<pitch>
<step>D</step>
<octave>3</octave>
<alter>1</alter>
</pitch>
<notations>
<technical>
<fret>6</fret>
<string>3</string>
</technical>
</notations>
<voice>1</voice>
<duration>480</duration>
<type>eighth</type>
</note>
<note>
<pitch>
<step>A</step>
<octave>2</octave>
<alter>1</alter>
</pitch>
<notations>
<technical>
<fret>6</fret>
<string>4</string>
</technical>
</notations>
<voice>1</voice>
<duration>240</duration>
<type>16th</type>
</note>
</measure>
<measure number="9">
<note>
<pitch>
<step>C</step>
<octave>2</octave>
<alter>1</alter>
</pitch>
<notations>
<technical>
<fret>2</fret>
<string>5</string>
</technical>
</notations>
<voice>1</voice>
<duration>720</duration>
<type>eighth</type>
<dot/>
</note>
<note>
<pitch>
<step>G</step>
<octave>2</octave>
<alter>1</alter>
</pitch>
<notations>
<technical>
<fret>4</fret>
<string>4</string>
</technical>
</notations>
<voice>1</voice>
<duration>720</duration>
<type>eighth</type>
<dot/>
</note>
<note>
<pitch>
<step>C</step>
<octave>3</octave>
<alter>1</alter>
</pitch>
<notations>
<technical>
<fret>4</fret>
<string>3</string>
</technical>
</notations>
<voice>1</voice>
<duration>480</duration>
<type>eighth</type>
</note>
<note>
<pitch>
<step>E</step>
<octave>3</octave>
</pitch>
<notations>
<technical>
<fret>7</fret>
<string>3</string>
</technical>
</notations>
<voice>1</voice>
<duration>240</duration>
<type>16th</type>
</note>
<note>
<pitch>
<step>D</step>
<octave>3</octave>
<alter>1</alter>
</pitch>
<notations>
<technical>
<fret>6</fret>
<string>3</string>
</technical>
</notations>
<voice>1</voice>
<duration>240</duration>
<type>16th</type>
</note>
<note>
<pitch>
<step>E</step>
<octave>3</octave>
</pitch>
<notations>
<technical>
<fret>7</fret>
<string>3</string>
</technical>
</notations>
<voice>1</voice>
<duration>240</duration>
<type>16th</type>
</note>
<note>
<pitch>
<step>C</step>
<octave>3</octave>
<alter>1</alter>
</pitch>
<notations>
<technical>
<fret>4</fret>
<string>3</string>
</technical>
</notations>
<voice>1</voice>
<duration>480</duration>
<type>eighth</type>
</note>
<note>
<pitch>
<step>E</step>
<octave>2</octave>
</pitch>
<notations>
<technical>
<fret>0</fret>
<string>4</string>
</technical>
</notations>
<voice>1</voice>
<duration>240</duration>
<type>16th</type>
</note>
<note>
<pitch>
<step>G</step>
<octave>2</octave>
<alter>1</alter>
</pitch>
<notations>
<technical>
<fret>4</fret>
<string>4</string>
</technical>
</notations>
<voice>1</voice>
<duration>240</duration>
<type>16th</type>
</note>
<note>
<pitch>
<step>B</step>
<octave>2</octave>
</pitch>
<notations>
<technical>
<fret>7</fret>
<string>4</string>
</technical>
</notations>
<voice>1</voice>
<duration>240</duration>
<type>16th</type>
</note>
</measure>
<measure number="10">
<note>
<pitch>
<step>D</step>
<octave>3</octave>
<alter>1</alter>
</pitch>
<notations>
<technical>
<fret>6</fret>
<string>3</string>
</technical>
</notations>
<voice>1</voice>
<duration>480</duration>
<type>eighth</type>
</note>
<note>
<pitch>
<step>D</step>
<octave>2</octave>
<alter>1</alter>
</pitch>
<notations>
<technical>
<fret>4</fret>
<string>5</string>
</technical>
</notations>
<voice>1</voice>
<duration>480</duration>
<type>eighth</type>
</note>
<note>
<pitch>
<step>E</step>
<octave>3</octave>
</pitch>
<notations>
<technical>
<fret>7</fret>
<string>3</string>
</technical>
</notations>
<voice>1</voice>
<duration>480</duration>
<type>eighth</type>
</note>
<note>
<pitch>
<step>E</step>
<octave>2</octave>
</pitch>
<notations>
<technical>
<fret>5</fret>
<string>5</string>
</technical>
</notations>
<voice>1</voice>
<duration>480</duration>
<type>eighth</type>
</note>
<note>
<pitch>
<step>D</step>
<octave>3</octave>
<alter>1</alter>
</pitch>
<notations>
<technical>
<fret>6</fret>
<string>3</string>
</technical>
</notations>
<voice>1</voice>
<duration>480</duration>
<type>eighth</type>
</note>
<note>
<pitch>
<step>D</step>
<octave>2</octave>
<alter>1</alter>
</pitch>
<notations>
<technical>
<fret>4</fret>
<string>5</string>
</technical>
</notations>
<voice>1</voice>
<duration>480</duration>
<type>eighth</type>
</note>
<note>
<pitch>
<step>C</step>
<octave>3</octave>
<alter>1</alter>
</pitch>
<notations>
<technical>
<fret>4</fret>
<string>3</string>
</technical>
</notations>
<voice>1</voice>
<duration>480</duration>
<type>eighth</type>
</note>
<note>
<pitch>
<step>C</step>
<octave>2</octave>
<alter>1</alter>
</pitch>
<notations>
<technical>
<fret>2</fret>
<string>5</string>
</technical>
</notations>
<voice>1</voice>
<duration>480</duration>
<type>eighth</type>
</note>
</measure>
<measure number="11">
<note>
<pitch>
<step>D</step>
<octave>3</octave>
<alter>1</alter>
</pitch>
<notations>
<technical>
<fret>6</fret>
<string>3</string>
</technical>
</notations>
<voice>1</voice>
<duration>480</duration>
<type>eighth</type>
</note>
<note>
<pitch>
<step>D</step>
<octave>2</octave>
<alter>1</alter>
</pitch>
<notations>
<technical>
<fret>4</fret>
<string>5</string>
</technical>
</notations>
<voice>1</voice>
<duration>480</duration>
<type>eighth</type>
</note>
<note>
<pitch>
<step>E</step>
<octave>3</octave>
</pitch>
<notations>
<technical>
<fret>7</fret>
<string>3</string>
</technical>
</notations>
<voice>1</voice>
<duration>480</duration>
<type>eighth</type>
</note>
<note>
<pitch>
<step>E</step>
<octave>2</octave>
</pitch>
<notations>
<technical>
<fret>5</fret>
<string>5</string>
</technical>
</notations>
<voice>1</voice>
<duration>480</duration>
<type>eighth</type>
</note>
<note>
<pitch>
<step>F</step>
<octave>3</octave>
<alter>1</alter>
</pitch>
<notations>
<technical>
<fret>9</fret>
<string>3</string>
</technical>
</notations>
<voice>1</voice>
<duration>480</duration>
<type>eighth</type>
</note>
<note>
<pitch>
<step>F</step>
<octave>2</octave>
<alter>1</alter>
</pitch>
<notations>
<technical>
<fret>7</fret>
<string>5</string>
</technical>
</notations>
<voice>1</voice>
<duration>480</duration>
<type>eighth</type>
</note>
<note>
<pitch>
<step>E</step>
<octave>3</octave>
</pitch>
<notations>
<technical>
<fret>7</fret>
<string>3</string>
</technical>
</notations>
<voice>1</voice>
<duration>480</duration>
<type>eighth</type>
</note>
<note>
<pitch>
<step>E</step>
<octave>2</octave>
</pitch>
<notations>
<technical>
<fret>5</fret>
<string>5</string>
</technical>
</notations>
<voice>1</voice>
<duration>480</duration>
<type>eighth</type>
</note>
</measure>
<measure number="12">
<note>
<pitch>
<step>D</step>
<octave>2</octave>
<alter>1</alter>
</pitch>
<notations>
<technical>
<fret>4</fret>
<string>5</string>
</technical>
</notations>
<voice>1</voice>
<duration>480</duration>
<type>eighth</type>
</note>
<note>
<pitch>
<step>A</step>
<octave>2</octave>
<alter>1</alter>
</pitch>
<notations>
<technical>
<fret>6</fret>
<string>4</string>
</technical>
</notations>
<voice>1</voice>
<duration>240</duration>
<type>16th</type>
</note>
<note>
<pitch>
<step>D</step>
<octave>3</octave>
<alter>1</alter>
</pitch>
<notations>
<technical>
<fret>6</fret>
<string>3</string>
</technical>
</notations>
<voice>1</voice>
<duration>480</duration>
<type>eighth</type>
</note>
<note>
<pitch>
<step>C</step>
<octave>3</octave>
<alter>1</alter>
</pitch>
<notations>
<technical>
<fret>4</fret>
<string>3</string>
</technical>
</notations>
<voice>1</voice>
<duration>240</duration>
<type>16th</type>
</note>
<note>
<pitch>
<step>D</step>
<octave>3</octave>
<alter>1</alter>
</pitch>
<notations>
<technical>
<fret>6</fret>
<string>3</string>
</technical>
</notations>
<voice>1</voice>
<duration>240</duration>
<type>16th</type>
</note>
<note>
<pitch>
<step>A</step>
<octave>2</octave>
</pitch>
<notations>
<technical>
<fret>0</fret>
<string>3</string>
</technical>
</notations>
<voice>1</voice>
<duration>240</duration>
<type>16th</type>
</note>
<note>
<pitch>
<step>A</step>
<octave>2</octave>
<alter>1</alter>
</pitch>
<notations>
<technical>
<fret>1</fret>
<string>3</string>
</technical>
</notations>
<voice>1</voice>
<duration>480</duration>
<type>eighth</type>
</note>
<note>
<pitch>
<step>B</step>
<octave>2</octave>
</pitch>
<notations>
<technical>
<fret>2</fret>
<string>3</string>
</technical>
</notations>
<voice>1</voice>
<duration>480</duration>
<type>eighth</type>
</note>
<note>
<pitch>
<step>C</step>
<octave>3</octave>
</pitch>
<notations>
<technical>
<fret>3</fret>
<string>3</string>
</technical>
</notations>
<voice>1</voice>
<duration>480</duration>
<type>eighth</type>
</note>
<note>
<pitch>
<step>C</step>
<octave>3</octave>
<alter>1</alter>
</pitch>
<notations>
<technical>
<fret>4</fret>
<string>3</string>
</technical>
</notations>
<voice>1</voice>
<duration>480</duration>
<type>eighth</type>
</note>
</measure>
<measure number="13">
<note>
<pitch>
<step>D</step>
<octave>3</octave>
<alter>1</alter>
</pitch>
<notations>
<technical>
<fret>1</fret>
<string>2</string>
</technical>
</notations>
<voice>1</voice>
<duration>480</duration>
<type>eighth</type>
</note>
<note>
<pitch>
<step>E</step>
<octave>3</octave>
</pitch>
<notations>
<technical>
<fret>2</fret>
<string>2</string>
</technical>
</notations>
<voice>1</voice>
<duration>480</duration>
<type>eighth</type>
</note>
<note>
<pitch>
<step>F</step>
<octave>3</octave>
</pitch>
<notations>
<technical>
<fret>3</fret>
<string>2</string>
</technical>
</notations>
<voice>1</voice>
<duration>480</duration>
<type>eighth</type>
</note>
<note>
<pitch>
<step>F</step>
<octave>3</octave>
<alter>1</alter>
</pitch>
<notations>
<technical>
<fret>4</fret>
<string>2</string>
</technical>
</notations>
<voice>1</voice>
<duration>480</duration>
<type>eighth</type>
</note>
<note>
<pitch>
<step>G</step>
<octave>3</octave>
</pitch>
<notations>
<technical>
<fret>5</fret>
<string>2</string>
</technical>
</notations>
<voice>1</voice>
<duration>480</duration>
<type>eighth</type>
</note>
<note>
<pitch>
<step>D</step>
<octave>2</octave>
<alter>1</alter>
</pitch>
<notations>
<technical>
<fret>4</fret>
<string>5</string>
</technical>
</notations>
<voice>1</voice>
<duration>240</duration>
<type>16th</type>
</note>
<note>
<pitch>
<step>A</step>
<octave>2</octave>
<alter>1</alter>
</pitch>
<notations>
<technical>
<fret>6</fret>
<string>4</string>
</technical>
</notations>
<voice>1</voice>
<duration>480</duration>
<type>eighth</type>
</note>
<note>
<pitch>
<step>D</step>
<octave>3</octave>
<alter>1</alter>
</pitch>
<notations>
<technical>
<fret>6</fret>
<string>3</string>
</technical>
</notations>
<voice>1</voice>
<duration>240</duration>
<type>16th</type>
</note>
<note>
<pitch>
<step>C</step>
<octave>3</octave>
<alter>1</alter>
</pitch>
<notations>
<technical>
<fret>4</fret>
<string>3</string>
</technical>
</notations>
<voice>1</voice>
<duration>480</duration>
<type>eighth</type>
</note>
</measure>
</part>
</score-partwise>
